<svg width="158" height="51" viewBox="0 0 158 51" fill="none" xmlns="http://www.w3.org/2000/svg">
<path d="M157.58 46.0274C157.279 45.5388 156.935 44.8751 157.034 44.421C157.135 43.9607 157.135 42.2324 157.004 41.5199C156.866 40.8002 156.071 37.5303 155.996 37.1844C155.916 36.8396 155.772 36.6615 155.618 36.5335L155.335 35.2274L153.572 29.6564C153.572 29.4876 153.81 26.9844 153.418 25.6428C153.026 24.3063 152.186 22.5178 152.031 22.2636C151.874 22.0055 152.468 21.9919 152.658 21.7231C152.847 21.4586 152.743 20.6292 152.836 20.3522C152.922 20.07 153.284 19.9149 153.324 19.8397C153.343 19.8106 153.538 19.8877 153.818 19.9626C154.29 20.0941 154.999 20.2242 155.484 19.8397C156.255 19.2242 155.818 18.2159 155.57 16.3522C155.33 14.4855 155.156 13.6055 155.151 13.1575C155.138 12.7149 154.799 12.7367 154.748 12.4085C154.69 12.0855 154.81 12.0397 154.154 11.4482C153.492 10.8586 153.124 10.4002 152.967 10.2565C152.812 10.1127 153.015 9.21885 153.036 8.93672C153.06 8.65645 153.274 8.81592 153.303 8.61592C153.338 8.41379 153.17 8.42419 153.194 8.10952C153.199 7.98659 153.199 7.67725 153.188 7.32525C155.042 7.76792 156.479 8.03965 156.807 7.92312C157.428 7.71165 152.33 0.509525 151.346 0.232458C150.482 -0.0134084 141.788 4.01592 142.266 4.08552C142.266 4.23459 144.506 4.96072 147.228 5.74712L147.223 5.79486C146.97 7.75219 147.362 8.41379 147.754 9.46152C147.89 9.83246 148.164 9.80339 148.423 9.77299C148.559 9.75752 148.69 9.74179 148.794 9.78446C149.095 9.90952 149.308 10.6002 149.151 10.7679C148.991 10.9335 147.311 11.0511 146.671 12.2637C146.031 13.4855 145.618 17.1471 145.612 17.1919C145.599 17.2324 143.13 17.4106 142.796 17.2274C142.458 17.0378 142.012 16.9335 141.564 16.7898C141.122 16.645 140.292 16.7543 140.004 17.0242C139.711 17.2908 139.14 17.3252 139.21 17.5044L139.364 17.8378L124.612 20.7335C124.524 20.7335 122.636 20.7199 122.055 20.5303C121.759 20.4346 120.375 20.6188 118.946 20.8055C117.578 20.9815 116.167 21.1607 115.62 21.0876C114.503 20.9439 110.538 20.7948 109.546 20.3762C108.551 19.9492 104.562 20.1178 103.242 19.8636C101.919 19.6159 100.087 19.9148 99.4549 19.9148C98.8149 19.9148 92.8522 20.1178 92.3162 19.9845C92.0576 19.9178 91.5269 20.0511 90.9696 20.1866C90.3723 20.3303 89.7456 20.4751 89.3989 20.3711C88.7296 20.1679 87.3723 20.0826 86.4683 20.3367C85.5643 20.5898 85.2469 20.9388 85.1429 21.4751C85.0469 22.0106 85.1109 22.0274 84.9936 22.1252C84.9563 22.1607 84.8843 22.1575 84.8069 22.1543C84.6496 22.1522 84.4656 22.1471 84.4816 22.4482C84.5056 22.8908 84.3509 23.2084 84.2576 23.1282L84.0789 23.3522C84.0843 23.3866 84.0389 23.3607 83.9776 23.3335C83.8629 23.2826 83.6949 23.2346 83.6523 23.5522C83.5963 24.0428 83.5376 24.1231 83.5216 24.2274L82.8416 24.446C82.5989 24.3178 80.7056 24.1335 80.3269 23.9626C79.9456 23.7948 79.711 23.7658 79.6816 23.9095C79.647 24.0532 79.2203 23.9439 79.2096 23.6804C79.2043 23.4159 79.0016 23.3335 79.1456 23.2324C79.2896 23.1282 79.6816 22.5231 79.7163 21.8615C79.7456 21.2055 79.8203 19.9492 79.7963 19.7815L79.2549 19.7012L77.1323 21.2908L76.9349 21.5679L76.7216 21.2055L76.1536 21.2324L75.743 21.446C75.583 21.3148 75.1323 20.6586 74.7776 20.5418C74.4203 20.421 73.3083 20.5492 73.2283 20.5898L72.7803 20.997L72.5376 21.1303C72.399 20.9127 71.4203 20.4324 71.103 20.4324C70.7936 20.4324 70.3669 20.4324 70.2176 20.3367C70.0683 20.2378 69.8149 20.2084 70.1643 20.7388C70.5216 21.2668 71.6443 21.7231 71.743 21.8564L72.0603 22.0159C72.2949 21.9658 72.0416 22.6772 71.8416 23.0106C71.6443 23.3522 70.3083 24.2615 69.9883 24.6532C69.6709 25.045 69.8256 25.5178 69.7856 25.8668C69.7403 26.2138 69.775 26.9199 69.0363 27.421C68.3003 27.9231 67.4603 29.3335 66.7803 29.573C66.095 29.821 66.1296 30.2482 66.0549 30.3575C65.9749 30.4722 65.3589 30.6055 65.4283 31.3658C65.4976 32.1252 65.807 32.8511 66.0656 33.2428C66.319 33.6324 66.591 33.3095 66.9696 33.8242C67.2896 34.2532 67.7589 34.2482 68.0523 34.2428C68.1083 34.2428 68.1563 34.2396 68.1963 34.2428C68.4549 34.2532 69.0896 34.1335 69.2549 33.8002C69.3589 33.5948 69.7563 33.6876 70.2176 33.7815C70.5029 33.8396 70.8123 33.8991 71.0923 33.8855C71.8176 33.8564 73.0896 33.4959 73.1989 33.373L73.4709 33.9335L73.3269 34.3231C73.4229 34.5012 73.8043 34.4564 73.8736 34.7607C73.935 35.0615 74.1963 35.0722 74.1829 34.7898C74.1723 34.5148 74.3616 34.6159 74.3616 34.3471C74.3616 34.0772 74.2976 34.3127 74.2416 33.9335C74.183 33.5522 74.0523 33.173 74.207 33.0292C74.3616 32.8855 74.8229 32.694 75.0523 33.0855C75.2896 33.4772 75.3936 33.4532 75.6123 33.6106C75.8363 33.7658 76.0363 33.9439 75.9163 34.2274C75.7909 34.5012 75.5376 34.446 75.5136 34.7898C75.4896 35.1418 75.5483 35.3948 75.6923 35.3711C75.8363 35.3543 75.5136 35.6428 75.5589 35.9658C75.6043 36.294 76.0149 36.2751 76.1696 36.5335C76.3243 36.7919 76.2843 37.5303 76.4523 37.9492C76.6176 38.3762 76.8443 38.4564 76.8656 38.67L76.911 39.5626C77.0336 39.6826 77.1643 39.47 77.1536 39.2159C77.1429 38.9575 77.2336 38.6482 77.2229 38.4564C77.2123 38.2668 77.2629 38.5439 77.1536 38.1231C77.0443 37.6959 76.9989 37.4378 77.0549 37.2084L76.879 36.4991L76.9536 36.1095L76.3189 35.5948L76.3589 35.1418L76.543 34.5252L76.1936 34.1575L76.4043 33.7418C76.4629 33.5522 76.4283 33.597 76.4176 33.3282C76.4043 33.0636 76.4736 32.8274 76.5829 32.7815L76.9883 32.7575L77.4656 32.4482C77.4763 32.3783 77.855 32.5282 77.9483 32.8959C78.0336 33.2636 78.7323 33.6615 79.0763 33.6324C79.2496 33.6159 79.7376 34.0084 80.2176 34.4034C80.7003 34.797 81.1749 35.1919 81.3109 35.1711C81.5749 35.1303 83.3536 34.5012 83.5429 34.3919C83.7349 34.2772 83.9243 34.9626 83.8656 35.2274C83.8149 35.4991 83.8203 36.2991 84.2923 36.8159C84.7589 37.3282 84.3376 37.6751 84.7056 38.0772C85.0763 38.4804 86.9296 40.0002 87.0256 40.2991C87.1296 40.597 86.5616 43.7658 86.4789 44.0876C86.4043 44.4084 86.1696 45.0532 86.0603 45.2772C85.9429 45.5044 85.9109 46.2855 85.9109 46.7626C85.9109 47.2482 85.8869 48.3418 85.7323 48.5762C85.5749 48.8084 85.1509 49.5439 85.1376 49.9367C85.1269 50.3282 86.1803 50.6959 86.3483 50.9095C86.5136 51.1231 86.6363 50.8855 86.7376 50.3844C86.8363 49.8826 87.7163 47.4034 87.9989 46.8668C88.2816 46.3303 89.0576 44.8138 89.2842 44.3522C89.5082 43.8959 89.9003 43.0346 90.1456 42.6242C90.3883 42.2106 90.8709 42.5095 91.3963 42.2855C91.9189 42.0668 93.1163 41.3178 93.3483 40.9794C93.5829 40.646 95.2576 40.6324 95.4256 40.846C95.5936 41.0586 98.2629 44.9679 98.3083 45.2378C98.3563 45.5044 99.2816 47.5815 99.5589 47.9252C99.8416 48.2722 101.09 49.2002 101.1 49.7282C101.114 50.2532 100.9 50.3282 101.159 50.4636C101.412 50.597 101.924 50.597 102.266 50.4826C102.599 50.373 102.799 50.4188 102.858 50.1711C102.908 49.9303 102.42 49.3367 102.183 48.6242C101.948 47.9044 101.943 47.7711 101.943 47.1335C101.943 46.4991 101.567 45.4564 101.303 44.7303C101.034 44.0055 100.295 41.5844 100.14 41.0586C99.9856 40.5367 99.8416 40.3439 100.031 40.2428C100.22 40.1439 103.916 40.1199 104.215 40.2188C104.332 40.2586 104.487 40.2428 104.652 40.2274C104.919 40.2034 105.218 40.1794 105.46 40.3783C105.844 40.7012 106.674 41.3231 107.911 40.5815C109.154 39.8274 110.618 39.0722 110.852 39.0159C111.09 38.9575 113.802 37.6959 114.191 37.8991C115.252 38.0084 117.599 40.1543 117.284 41.2138C116.972 42.2751 114.772 43.9199 114.255 44.0586C113.738 44.1898 112.62 45.2511 112.418 45.7148C112.218 46.1815 112.004 49.6428 111.988 49.7388L114.29 50.0615C114.026 49.9711 114.087 46.2959 114.786 46.0274C115.476 45.7626 117.018 44.9095 117.375 44.6002C117.732 44.2876 120.812 42.2751 120.812 42.2751C120.812 42.2751 120.972 43.0804 121.572 43.3282C122.178 43.5679 123.282 44.5303 123.346 45.2668C123.402 46.0106 123.628 49.9522 123.628 50.0396L125.751 50.0615C125.815 49.8378 126.287 45.1127 126.263 44.4428C126.242 43.7711 126.356 43.373 126.402 43.2346L126.487 43.0396L126.527 42.5335C126.527 42.5335 126.476 42.3303 126.292 41.8292C126.108 41.3231 124.618 39.9543 124.45 39.5492C124.284 39.1471 124.082 38.3418 123.644 37.6396C123.212 36.9367 123.276 36.4034 123.644 35.2804C124.012 34.1575 124.132 31.7626 124.652 30.9898C125.17 30.2188 125.503 28.2106 125.855 27.0346C126.207 25.8615 124.871 23.6159 124.871 23.6159C125.09 23.6855 125.855 24.1231 126.73 25.6138C127.599 27.1044 128.554 34.7898 128.519 36.4188C128.484 38.0428 128.98 39.4751 128.906 39.1658L128.895 39.1127C128.847 38.7679 128.98 37.9898 128.98 37.9898C128.98 37.9898 129.055 38.2428 129.223 38.6826C129.388 39.1127 130.45 39.5492 130.962 39.8511C131.468 40.1543 131.922 40.6908 132.508 40.8511C133.09 41.0084 133.655 40.9844 133.655 40.9844C133.655 40.9844 133.586 40.9679 132.93 40.8396C132.279 40.7199 131.394 39.821 131.354 39.7815C131.394 39.7866 131.996 39.9711 132.215 40.2346C132.439 40.5127 133.303 40.6615 133.58 40.6855C133.858 40.6959 133.799 40.7658 133.999 41.0002L134.956 41.0428L134.276 40.9439C134.082 40.8564 134.172 40.4722 133.69 40.4722C133.207 40.4722 133.09 40.2292 133.09 40.2292L133.85 40.1439C134.076 40.1388 134.247 40.1199 134.61 40.3679C134.927 40.5919 135.26 40.4378 135.335 40.397L134.727 40.2292C134.495 40.045 134.282 39.8668 134.007 39.8034C133.73 39.7367 133.362 39.8804 133.034 39.9711C132.711 40.0636 132.572 39.6482 132.572 39.6482C132.572 39.6482 132.636 39.6772 132.954 39.7471C133.268 39.8106 133.815 39.5679 134.167 39.5679C134.519 39.5679 134.495 39.7575 134.818 40.0346C135.146 40.3095 135.479 40.3231 136.066 40.1948C136.436 40.1148 136.724 39.9252 136.884 39.797C136.562 39.9815 135.895 40.0511 135.895 40.0511C136.287 39.9116 136.338 39.2751 136.602 39.2564C137.012 39.27 137.407 38.997 137.551 38.8772C137.415 38.9575 137.148 39.0482 136.684 39.0564C136.41 39.0586 136.175 39.245 136.074 39.5012C135.812 40.1607 134.991 39.9794 134.876 39.7063C134.778 39.4586 133.959 39.3252 133.959 39.3252C133.959 39.3252 134.271 39.3148 134.575 39.2751C134.876 39.2292 134.978 38.8722 135.231 38.6586L135.444 38.5439L135.012 38.4564L134.519 39.0034L133.714 39.1471C133.714 39.1471 133.959 39.0378 134.22 39.0159C134.474 38.9919 134.594 38.5543 134.818 38.47L135.012 38.4564L135.18 38.3522L135.956 38.4804C135.956 38.4804 135.687 38.4564 135.444 38.5439C135.636 38.5658 135.882 38.5783 136.239 38.5439C137.266 38.4564 137.356 37.7948 137.356 37.7948C137.231 38.2324 136.516 38.4106 136.17 38.4106C135.826 38.4106 134.978 38.0876 134.674 38.3658C134.375 38.6482 133.948 38.8482 133.378 38.7794C132.81 38.7095 132.204 38.446 131.807 37.7948C131.404 37.1492 129.935 36.5127 129.804 36.1303C129.671 35.7522 129.682 35.1919 129.367 34.4804C129.055 33.7658 127.794 25.1303 127.116 23.6908C126.431 22.2532 124.743 21.6586 124.703 21.4586L124.543 21.0668L139.298 18.0908L140.188 18.5626L141.322 18.494L142.418 18.2564L145.191 19.4772C145.29 19.6804 144.922 22.246 144.938 22.5127C144.948 22.6615 145.234 22.645 145.49 22.6292C145.698 22.6159 145.887 22.6034 145.892 22.6772C145.911 22.8511 145.394 24.9762 145.14 26.7199C144.887 28.4586 144.684 35.6428 144.714 36.0274C144.743 36.4138 144.044 37.1844 143.999 37.4511C143.959 37.7199 144.426 37.6751 144.426 37.7844L142.876 44.6274L142.135 45.6482C141.828 45.8722 141.391 46.1127 141.002 46.0855C140.298 46.0324 139.831 46.0378 139.428 46.0855C139.026 46.1367 138.727 46.3148 138.892 46.7522L139.071 47.2002L140.85 47.8804C140.85 47.8804 142.122 47.6159 142.37 47.6396C142.618 47.6615 144.023 47.6396 144.332 47.8396C144.65 48.0346 145.052 48.197 145.295 48.1044C145.543 48.0188 145.663 46.5231 145.892 46.0959L146.106 45.8532L146.727 44.2876C146.727 44.2876 147.908 40.0159 147.932 39.2804C147.954 38.5439 148.063 38.4106 148.063 38.4106C148.063 38.4106 149.071 38.3252 149.274 37.5815C149.474 36.846 150.476 34.2532 150.476 34.2532C150.476 34.2532 151.282 37.294 151.778 37.7844C152.266 38.2772 152.599 38.1012 152.668 38.3866C152.738 38.6826 153.85 43.0106 154.228 43.5679C154.61 44.1335 154.418 46.0959 154.418 46.0959L153.826 46.9303L153.706 47.1044L152.556 47.87C153.831 48.3543 155.215 48.4855 156.559 48.2482L156.647 48.2324C156.999 48.2274 157.362 48.2274 157.551 48.1178C157.874 47.9252 157.93 47.9044 157.908 47.5815C157.884 47.2586 157.884 46.5231 157.58 46.0274Z" fill="#300C07"/>
<path d="M71.5092 39.2426C71.8959 39.2719 72.3119 39.0053 72.4612 38.8874C72.3119 38.9469 72.0452 39.0343 71.5679 39.0634C71.3012 39.0634 71.0639 39.2426 70.9732 39.5125C70.7065 40.1655 69.8745 39.9863 69.7865 39.7197C69.6665 39.4509 68.8639 39.3333 68.8639 39.3333C68.8639 39.3333 69.1625 39.3042 69.4585 39.2719C69.7865 39.2426 69.8746 38.8874 70.1412 38.6479L70.3492 38.5301L69.9039 38.4719L69.4292 39.0053L68.5972 39.1541L69.1012 39.0053C69.3705 39.0053 69.4879 38.5605 69.7252 38.4719H69.9039L70.0826 38.3519L70.8559 38.4719L70.3492 38.5301C70.5279 38.5605 70.7652 38.5895 71.1225 38.5301C72.1625 38.4719 72.2532 37.7863 72.2532 37.7863C72.1332 38.2322 71.4212 38.4103 71.0639 38.4103C70.7359 38.4103 69.8746 38.0853 69.5786 38.3519C69.2799 38.6479 68.8345 38.8562 68.2692 38.7677C67.7065 38.7093 67.1119 38.4394 66.6959 37.7863C66.3092 37.1623 64.8239 36.5093 64.7039 36.1229C64.5572 35.7655 64.5865 35.2031 64.2585 34.4874C63.9625 33.7759 62.6852 25.1279 61.9999 23.701C61.3172 22.2458 59.6532 21.653 59.5945 21.4458L59.4452 21.0583L58.9706 20.7301C58.3466 20.701 57.3652 20.6719 56.9492 20.5229C56.6639 20.4322 55.2986 20.6157 53.8799 20.8031C52.5039 20.9813 51.0719 21.1605 50.5306 21.0874C49.4026 20.9386 45.4186 20.7917 44.4399 20.3727C43.4586 19.9573 39.4479 20.1061 38.1386 19.8698C36.8026 19.6031 34.9892 19.9279 34.3652 19.9279C33.7119 19.9279 27.7386 20.1061 27.2053 19.9895C26.9466 19.9175 26.4159 20.053 25.8613 20.1895C25.2666 20.3365 24.6453 20.4823 24.2933 20.3727C23.6399 20.1655 22.2719 20.077 21.3519 20.3437C20.4586 20.5813 20.1333 20.9386 20.0426 21.4749C19.9546 22.0082 20.0133 22.0375 19.8959 22.1279C19.8586 22.1541 19.7919 22.1541 19.7199 22.1519C19.5599 22.149 19.3706 22.1469 19.3893 22.453C19.3893 22.901 19.2426 23.1967 19.1519 23.1386L18.9733 23.3469C18.9733 23.3895 18.9253 23.3605 18.8613 23.3333C18.7519 23.2823 18.5946 23.2343 18.5573 23.5541C18.4986 24.029 18.4399 24.1175 18.4079 24.2375L17.7253 24.4458C17.4879 24.325 15.6167 24.149 15.2301 23.9709C14.8437 23.7917 14.6061 23.7623 14.5759 23.9093C14.5469 24.0583 14.1301 23.9415 14.101 23.6719C14.101 23.4053 13.8927 23.3469 14.0415 23.2271C14.1895 23.1386 14.5759 22.5146 14.6061 21.8613C14.6354 21.2053 14.725 19.9573 14.6946 19.7813L14.1605 19.6906L12.0207 21.2957L11.8426 21.5623L11.6343 21.2053L11.0405 21.2375L10.6541 21.4458C10.4749 21.325 10.0301 20.6719 9.67274 20.5519C9.31674 20.4343 8.21754 20.5519 8.12794 20.5813L7.68235 20.9967L7.44475 21.1175C7.29568 20.9093 6.31567 20.4343 5.98847 20.4343C5.69167 20.4343 5.27594 20.4343 5.12714 20.3437C4.97808 20.2271 4.71142 20.1967 5.06769 20.7301C5.42395 21.2666 6.553 21.7114 6.6426 21.8613L6.96982 22.0082C7.20715 21.9781 6.93941 22.6938 6.73114 23.0186C6.55301 23.3469 5.21568 24.2666 4.88955 24.653C4.56235 25.0394 4.71141 25.5146 4.68128 25.8719C4.65088 26.229 4.68128 26.9125 3.93862 27.4157C3.19569 27.9229 2.36342 29.349 1.68022 29.5863C0.996757 29.8239 1.02608 30.2394 0.966617 30.3573C0.878084 30.477 0.254091 30.5967 0.313558 31.3677C0.402091 32.1125 0.698884 32.853 0.966617 33.2394C1.20422 33.6271 1.50208 33.301 1.85835 33.8343C2.24475 34.3415 2.83862 34.2207 3.10608 34.2509C3.34368 34.2509 3.99782 34.1333 4.14689 33.8053C4.25729 33.6031 4.65195 33.6957 5.11248 33.7895C5.39674 33.8479 5.70527 33.9061 5.98847 33.8938C6.70207 33.8634 7.97914 33.5093 8.09781 33.3895H8.18741L9.10821 33.0322L9.5842 32.853H9.61355L11.4853 32.7946L11.8719 32.7655L12.3479 32.4394C12.377 32.3781 12.7634 32.5279 12.853 32.8853C12.9415 33.2719 13.625 33.6562 13.9823 33.6271C14.3386 33.6271 15.9135 35.1727 16.2103 35.1727C16.4781 35.1415 18.2613 34.4874 18.4399 34.3999C18.6186 34.2802 18.8266 34.9655 18.7653 35.2322C18.7066 35.4989 18.7066 36.301 19.1813 36.8082C19.6559 37.3415 19.2426 37.6698 19.5973 38.0853C19.9839 38.4719 21.8266 39.9863 21.9146 40.3125C22.0346 40.6103 21.4693 43.7605 21.3813 44.0853C21.2906 44.4135 21.0533 45.0666 20.9653 45.2749C20.8453 45.5125 20.8159 46.2853 20.8159 46.7605C20.8159 47.2375 20.7866 48.3365 20.6373 48.5727C20.4586 48.8103 20.0426 49.5541 20.0426 49.9415C20.0133 50.3279 21.0826 50.6823 21.2319 50.9197C21.4106 51.1279 21.5306 50.8906 21.6479 50.3863C21.7359 49.8802 22.6293 47.4157 22.8959 46.8802C23.1919 46.3437 23.9653 44.7999 24.1733 44.3541C24.4106 43.9093 24.7973 43.0479 25.0346 42.629C25.2746 42.2135 25.7786 42.5125 26.2826 42.2749C26.8186 42.0666 28.0079 41.3229 28.2453 40.9677C28.4826 40.6394 30.1466 40.6394 30.3252 40.8479C30.5039 41.0562 33.1466 44.9791 33.2079 45.2447C33.2666 45.5125 34.1866 47.5917 34.4559 47.9197C34.7519 48.277 35.9999 49.1967 35.9999 49.7333C35.9999 50.2666 35.7919 50.3279 36.0586 50.4749C36.2986 50.5946 36.8319 50.5946 37.1599 50.4749C37.4852 50.3863 37.6932 50.4157 37.7546 50.1791C37.8132 49.9415 37.3066 49.3469 37.0692 48.6322C36.8319 47.8906 36.8319 47.7709 36.8319 47.1469C36.8319 46.4938 36.4746 45.453 36.2079 44.7415C35.9413 43.9967 35.1972 41.5917 35.0506 41.0562C34.8719 40.549 34.7519 40.3437 34.9306 40.253C35.1092 40.1365 38.8239 40.1365 39.1199 40.2239C39.2319 40.2562 39.3759 40.2394 39.5359 40.2239C39.8026 40.1946 40.1092 40.1677 40.3679 40.3727C40.7546 40.6989 41.5572 41.3229 42.8052 40.5813C44.0532 39.8375 45.5092 39.0634 45.7466 39.0053C45.9839 38.9469 48.6879 37.6989 49.0746 37.9061C50.1439 37.9946 52.4906 40.1655 52.1946 41.2053C51.8666 42.2749 49.6692 43.9093 49.1626 44.0562C48.6292 44.2053 47.5306 45.2447 47.3226 45.7197C47.1146 46.1967 46.9066 49.6426 46.8746 49.7333L49.1946 50.0583C48.9252 49.9709 48.9866 46.2853 49.6692 46.0186C50.3812 45.7519 51.9279 44.9197 52.2852 44.5917C52.6399 44.2957 55.7012 42.2749 55.7012 42.2749C55.7012 42.2749 55.8799 43.077 56.4746 43.3146C57.0692 43.5813 58.1679 44.5333 58.2559 45.2749C58.2852 46.0186 58.5252 49.9415 58.5252 50.029L60.6346 50.0583C60.7226 49.8509 61.1972 45.1279 61.1679 44.4426C61.1386 43.7605 61.2585 43.3727 61.2879 43.2239L61.3759 43.0479L61.4372 42.5415C61.4372 42.5415 61.3759 42.3333 61.1972 41.829C61.0212 41.3229 59.5039 39.9573 59.3572 39.5415C59.1785 39.1541 58.9705 38.3519 58.5545 37.6394C58.1065 36.925 58.1679 36.3917 58.5545 35.2906C58.9092 34.1623 59.0292 31.7541 59.5332 30.9813C60.0692 30.2103 60.3972 28.2186 60.7519 27.029C61.1092 25.8719 59.7706 23.6135 59.7706 23.6135C59.9812 23.6719 60.7519 24.1175 61.6132 25.6053C62.5066 27.1197 63.4559 34.7863 63.4265 36.4207C63.3972 37.6698 63.6932 38.8271 63.7839 39.125C63.7545 38.7677 63.8719 37.9946 63.8719 37.9946C63.8719 37.9946 63.9626 38.2322 64.1092 38.677C64.2879 39.125 65.3572 39.5415 65.8639 39.8375C66.3679 40.1655 66.8132 40.6989 67.4079 40.8479C68.0026 40.9967 68.5386 40.9967 68.5386 40.9967C68.5386 40.9967 68.4772 40.9677 67.8239 40.8479C67.1705 40.7279 66.2799 39.8082 66.2505 39.7791L67.1119 40.2239C67.3492 40.5197 68.2106 40.6698 68.4772 40.6989C68.7466 40.6989 68.6852 40.7605 68.8932 40.9967L69.8452 41.0562L69.1625 40.9365C68.9839 40.8479 69.0719 40.4613 68.5972 40.4613C68.0932 40.4613 68.0025 40.2239 68.0025 40.2239L68.7466 40.1365C68.9839 40.1365 69.1332 40.1365 69.5172 40.3727C69.8159 40.5813 70.1732 40.4322 70.2319 40.4031L69.6372 40.2239C69.3999 40.0447 69.1919 39.8666 68.8932 39.8082C68.6265 39.749 68.2692 39.8666 67.9439 39.9863C67.6159 40.0749 67.4692 39.6583 67.4692 39.6583C67.4692 39.6583 67.5279 39.6874 67.8532 39.749C68.1812 39.8082 68.7172 39.5709 69.0719 39.5709C69.4292 39.5709 69.3999 39.749 69.7252 40.0447C70.0532 40.3125 70.3812 40.3125 70.9732 40.1946C71.3305 40.1042 71.6292 39.9279 71.7759 39.8082C71.4506 39.9863 70.7972 40.0447 70.7972 40.0447C71.1812 39.9279 71.2426 39.2719 71.5092 39.2426ZM63.7839 39.1541L63.8132 39.1842V39.1541H63.7839Z" fill="#300C07"/>
</svg>
